<svg width="33" height="47" viewBox="0 0 33 47" fill="none" xmlns="http://www.w3.org/2000/svg">
<g clip-path="url(#clip0_321_3663)">
<path d="M9.09961 34.8164C10.4677 36.5487 11.7128 38.3734 12.826 40.2774C13.7765 42.068 14.1727 43.2822 14.8673 45.4397C15.2933 46.6318 15.6783 46.9875 16.506 46.9875C17.408 46.9875 17.8172 46.3823 18.1334 45.4463C18.79 43.4087 19.3051 41.8538 20.1179 40.3845C21.7128 37.5478 23.6947 35.0271 25.642 32.6045C26.1692 31.9188 29.5776 27.9243 31.112 24.7725C31.112 24.7725 32.998 21.3103 32.998 16.4749C32.998 11.9519 31.1381 8.81494 31.1381 8.81494L25.7833 10.2398L22.5313 18.7499L21.7268 19.9233L21.5659 20.1359L21.3519 20.402L20.9764 20.8271L20.4397 21.3602L17.5438 23.7043L10.304 27.8578L9.09961 34.8164Z" fill="#34A853"/>
<path d="M1.62744 24.1906C3.39442 28.2007 6.80181 31.7258 9.10717 34.8193L21.352 20.4076C21.352 20.4076 19.6269 22.6493 16.4977 22.6493C13.0121 22.6493 10.1962 19.8837 10.1962 16.3965C10.1962 14.0051 11.6442 12.3623 11.6442 12.3623L3.33204 14.5753L1.62744 24.1906Z" fill="#FBBC04"/>
<path d="M21.4887 0.741095C25.5555 2.0439 29.0363 4.779 31.1418 8.81216L21.3557 20.3993C21.3557 20.3993 22.8036 18.7267 22.8036 16.3502C22.8036 12.7818 19.7794 10.116 16.5124 10.116C13.423 10.116 11.6487 12.3539 11.6487 12.3539V5.05421L21.4887 0.740967V0.741095Z" fill="#4285F4"/>
<path d="M3.87061 5.86091C6.29957 2.97342 10.5736 0 16.4661 0C19.3249 0 21.4787 0.745725 21.4787 0.745725L11.6396 12.3604H4.66845L3.87061 5.86091Z" fill="#1A73E8"/>
<path d="M1.62729 24.1906C1.62729 24.1906 0.00170898 21.0276 0.00170898 16.4454C0.00170898 12.1147 1.69612 8.32904 3.8704 5.86096L11.6449 12.3614L1.62729 24.1906Z" fill="#EA4335"/>
</g>
<defs>
<clipPath id="clip0_321_3663">
<rect width="33" height="47" fill="white"/>
</clipPath>
</defs>
</svg>
